<?xml version="1.0" standalone="no"?>
<!DOCTYPE svg PUBLIC "-//W3C//DTD SVG 20010904//EN"
 "http://www.w3.org/TR/2001/REC-SVG-20010904/DTD/svg10.dtd">
<svg version="1.0" xmlns="http://www.w3.org/2000/svg"
 width="512.000000pt" height="512.000000pt" viewBox="0 0 512.000000 512.000000"
 preserveAspectRatio="xMidYMid meet">

<g transform="translate(0.000000,512.000000) scale(0.100000,-0.100000)"
fill="#000000" stroke="none">
<path d="M3308 5100 c-182 -29 -258 -87 -258 -197 0 -44 130 -424 158 -462 31
-42 69 -64 121 -69 45 -4 72 4 233 64 260 99 268 109 268 344 0 158 -9 198
-55 244 -28 28 -50 38 -127 56 -104 25 -254 33 -340 20z m273 -186 l70 -16 -3
-120 -3 -121 -144 -54 c-79 -30 -147 -51 -151 -46 -17 19 -122 335 -114 343
30 29 241 38 345 14z"/>
<path d="M997 4572 c-159 -83 -290 -211 -362 -354 -69 -138 -71 -209 -8 -279
24 -27 52 -44 96 -58 116 -38 379 -111 398 -111 29 0 90 28 117 53 13 12 58
89 99 172 100 199 100 192 -8 406 -75 147 -88 166 -124 186 -62 35 -119 31
-208 -15z m182 -259 l59 -118 -60 -120 c-33 -66 -61 -121 -62 -122 -7 -8 -356
102 -356 112 0 31 69 144 123 201 58 62 197 164 224 164 7 0 39 -53 72 -117z"/>
<path d="M4205 4516 c-52 -23 -79 -64 -205 -306 -129 -249 -144 -292 -121
-363 7 -20 28 -50 46 -66 64 -56 83 -56 371 -6 142 25 273 50 290 56 32 10 83
58 103 96 20 38 13 104 -18 168 -73 152 -253 383 -325 416 -48 22 -99 24 -141
5z m175 -291 c63 -83 147 -222 139 -229 -6 -5 -464 -84 -467 -81 -2 2 47 100
108 220 130 250 106 241 220 90z"/>
<path d="M2302 4209 c-231 -48 -375 -134 -578 -341 -119 -122 -178 -195 -243
-301 -53 -88 -129 -241 -171 -346 l-33 -83 -39 6 c-123 20 -404 134 -552 225
-185 114 -307 113 -365 -3 -65 -131 -22 -434 95 -668 141 -283 355 -484 624
-584 96 -36 89 -27 114 -169 27 -155 27 -154 112 -210 43 -27 81 -51 85 -53 5
-2 96 59 203 136 106 77 209 148 227 158 19 9 56 17 84 17 45 0 80 -16 364
-163 173 -90 319 -163 325 -163 6 0 135 70 286 155 151 85 286 159 299 163 39
12 108 7 142 -10 17 -9 144 -89 282 -176 276 -177 262 -172 322 -109 31 33 65
142 90 286 9 55 20 102 23 105 4 4 32 14 62 24 77 24 215 98 292 155 285 214
489 623 476 955 -3 82 -8 109 -28 149 -35 71 -65 89 -141 89 -53 -1 -74 -7
-148 -46 -294 -152 -355 -181 -467 -217 -69 -22 -144 -43 -167 -46 l-43 -6
-43 103 c-126 302 -284 545 -466 718 -153 145 -308 222 -520 256 -132 22 -386
19 -503 -6z m-358 -889 c113 -74 98 -272 -26 -336 -42 -22 -98 -17 -139 10
-110 75 -90 265 36 334 32 18 97 14 129 -8z m1382 1 c74 -45 115 -142 94 -222
-56 -207 -310 -151 -310 68 0 132 117 215 216 154z m-699 -98 c33 -37 242
-304 276 -353 34 -48 23 -80 -61 -186 -185 -236 -225 -284 -233 -284 -14 0
-11 7 14 33 49 52 275 344 281 365 10 29 -10 63 -122 204 -49 62 -107 138
-131 169 -23 32 -55 62 -72 69 -38 16 -42 12 -170 -152 -54 -69 -117 -148
-140 -174 -22 -26 -45 -59 -51 -73 -6 -15 -12 -21 -15 -13 -3 7 4 25 14 41 21
33 253 323 291 364 38 40 77 37 119 -10z m-19 -26 c15 -16 35 -38 45 -48 9
-11 17 -23 17 -27 0 -4 16 -25 35 -46 19 -21 35 -42 35 -47 0 -5 9 -14 20 -21
11 -7 20 -18 20 -23 0 -6 15 -27 33 -47 39 -44 56 -68 63 -90 4 -10 10 -18 15
-18 17 0 -12 -52 -66 -119 -30 -38 -55 -72 -55 -77 0 -5 -9 -15 -20 -22 -11
-7 -20 -16 -20 -21 0 -5 -20 -30 -44 -57 -25 -27 -43 -50 -41 -52 2 -2 -8 -15
-22 -28 -18 -17 -38 -24 -64 -24 -33 0 -43 6 -76 47 -21 26 -48 57 -60 70 -13
13 -23 26 -23 30 0 7 -136 177 -155 193 -16 14 -19 90 -3 90 5 0 12 8 15 17 4
10 20 28 35 41 15 13 28 29 28 35 0 7 9 18 20 25 11 7 20 19 20 27 0 8 4 15 9
15 8 0 131 153 131 164 0 3 10 16 23 29 27 28 49 24 85 -16z m-228 -617 c117
-151 137 -169 183 -170 15 0 27 -4 27 -10 0 -13 -29 -13 -68 1 -20 7 -52 38
-93 92 -35 45 -100 128 -146 184 -46 57 -83 106 -83 110 0 15 71 -67 180 -207z"/>
<path d="M1825 3316 c-127 -58 -141 -261 -22 -320 125 -61 252 108 188 251
-31 68 -103 98 -166 69z m120 -40 c13 -13 27 -36 31 -50 3 -14 10 -26 14 -26
10 0 -6 -84 -24 -117 -45 -87 -154 -102 -198 -27 -19 33 -40 124 -29 124 4 0
13 16 19 35 30 80 133 114 187 61z"/>
<path d="M3200 3312 c-70 -37 -99 -144 -61 -227 84 -186 305 -95 267 110 -12
63 -94 135 -153 135 -10 0 -34 -8 -53 -18z m135 -43 c20 -18 39 -47 45 -69 12
-43 9 -130 -3 -130 -5 0 -6 -4 -3 -8 2 -4 -11 -18 -29 -31 -40 -27 -95 -30
-131 -6 -29 19 -64 72 -64 98 0 9 -4 17 -9 17 -10 0 10 84 28 118 16 30 40 41
88 42 33 0 50 -7 78 -31z"/>
<path d="M2447 2942 c-59 -59 -97 -105 -97 -117 1 -11 40 -61 89 -112 77 -81
93 -93 122 -93 30 0 45 11 121 93 48 50 88 100 88 111 0 10 -37 57 -82 104
-99 103 -109 111 -128 112 -9 0 -59 -44 -113 -98z m216 -10 c48 -49 87 -96 87
-106 0 -21 -143 -176 -173 -188 -10 -5 -28 -2 -41 5 -25 14 -176 170 -176 182
0 15 184 195 200 195 8 0 55 -39 103 -88z"/>
<path d="M2460 2920 c-47 -49 -86 -93 -88 -98 -3 -11 173 -182 188 -182 17 0
180 160 180 178 0 20 -160 192 -179 192 -9 0 -54 -41 -101 -90z"/>
<path d="M695 1996 c-39 -18 -80 -62 -99 -107 -50 -120 -67 -415 -33 -579 65
-310 235 -599 469 -798 334 -282 773 -445 1328 -493 355 -31 860 42 1182 170
192 76 406 204 554 330 209 178 358 443 424 756 40 190 37 553 -6 636 -22 43
-78 81 -128 86 -85 10 -105 0 -267 -135 -85 -70 -187 -153 -226 -185 l-73 -58
-261 167 c-144 91 -278 173 -297 181 -74 31 -104 19 -416 -157 l-290 -163
-130 66 c-72 37 -218 111 -324 167 -209 108 -247 118 -315 84 -18 -9 -119 -80
-226 -157 -107 -77 -199 -140 -205 -140 -11 0 -63 33 -374 236 -137 90 -159
101 -205 104 -31 2 -64 -2 -82 -11z m375 -371 c155 -102 285 -185 290 -185 5
0 116 77 247 171 131 94 243 173 250 176 7 3 165 -74 351 -171 187 -97 344
-176 351 -176 6 0 150 79 320 175 170 96 313 175 318 175 5 0 150 -90 323
-200 261 -166 317 -197 329 -187 9 7 121 99 249 205 128 106 239 195 247 198
10 4 15 -18 20 -101 23 -338 -73 -677 -259 -911 -140 -178 -386 -342 -667
-447 -287 -108 -730 -171 -1037 -148 -544 41 -978 205 -1288 485 -179 162
-325 424 -370 663 -28 154 -6 483 33 469 7 -3 139 -89 293 -191z"/>
</g>
</svg>
